# xmcd
#
# Track frame offsets:
#	150
#	22921
#	43242
#	66813
#	87293
#	110948
#	130999
#	157567
#	174833
#	194032
#
# Disc length: 2847 seconds
#
# Revision: 0
# Processed by: cddbd v1.4PL0 Copyright (c) Steve Scherf et al.
# Submitted via: dBpowerAMP V4.0
#
DISCID=810b1d0a
DTITLE=Rick Lawson - I Wanna Have Some Fun
DYEAR=2003
DGENRE=Blues
TTITLE0=She's Having A Love Affair
TTITLE1=It's Party Time
TTITLE2=Slow Walk
TTITLE3=It's Amazing
TTITLE4=You Are My Friend
TTITLE5=I Feel Like Dancing
TTITLE6=I Don't Wanna Be Here
TTITLE7=I Wanna Have Some Fun
TTITLE8=One More Hurt
TTITLE9=Miracle
EXTD=
EXTT0=
EXTT1=
EXTT2=
EXTT3=
EXTT4=
EXTT5=
EXTT6=
EXTT7=
EXTT8=
EXTT9=
PLAYORDER=
